<?xml version="1.0" encoding="UTF-8"?>
<svg xmlns="http://www.w3.org/2000/svg" viewBox="0 0 301 301">
  <defs>
    <style>
      .cls-1 {
        fill: #fff;
      }

      .cls-2 {
        stroke: #000;
        stroke-miterlimit: 10;
      }
    </style>
  </defs>
  <g id="Layer_2" data-name="Layer 2">
    <circle class="cls-2" cx="150.5" cy="150.5" r="150"/>
  </g>
  <g id="Layer_1" data-name="Layer 1">
    <path class="cls-1" d="m98.28,104.85c5.52-5.52,12.14-9.73,19.86-12.64,7.62-2.91,16.25-4.41,25.78-4.41h77.75v-25.08h-77.75c-13.04,0-24.98,2.11-35.71,6.42-10.73,4.31-20.06,10.23-27.69,17.96-7.62,7.72-13.74,16.85-17.96,27.69s-6.42,22.67-6.42,35.71,2.11,24.98,6.42,35.71c4.31,10.73,10.23,20.06,17.96,27.69,7.72,7.72,16.95,13.64,27.69,17.96,10.73,4.31,22.67,6.42,35.71,6.42h25.28v-25.08h-25.28c-9.53,0-18.16-1.5-25.88-4.41-7.72-2.91-14.25-7.12-19.86-12.64-5.62-5.52-9.73-12.14-12.64-19.86-2.91-7.72-4.31-16.25-4.31-25.78s1.5-18.16,4.41-25.88c2.91-7.62,7.12-14.25,12.64-19.76Zm123.39,33.11h-107.34l44.04,57.99,6.22,8.23,6.22,8.23.1.2,19.66,25.68h31.1l-25.98-34.11-10.23-13.44-21.17-27.69h57.38v-25.08Z"/>
    <polygon class="cls-1" points="221.68 163.04 164.29 163.04 185.36 190.73 195.69 204.17 164.69 204.17 158.37 195.95 114.33 137.96 221.68 137.96 221.68 163.04"/>
    <polygon class="cls-1" points="221.68 238.28 190.58 238.28 171.11 212.6 171.11 190.73 185.36 190.73 195.69 204.17 221.68 238.28"/>
    <polygon class="cls-1" points="175.43 195.95 175.43 212.4 170.91 212.4 164.69 204.17 158.37 195.95 175.43 195.95"/>
  </g>
</svg>